<?xml version="1.0" encoding="UTF-8" standalone="yes"?>
<!DOCTYPE svg PUBLIC "-//W3C//DTD SVG 1.0//EN" "http://www.w3.org/TR/2001/REC-SVG-20010904/DTD/svg10.dtd">
<svg height="768" width="1280" xmlns="http://www.w3.org/2000/svg" xmlns:svg="http://www.w3.org/2000/svg" xmlns:xlink="http://www.w3.org/1999/xlink">
	<text font-family="Arial" font-size="1" x="132" y="49">MYOM2</text>
	<text font-family="Arial" font-size="1" x="10" y="65">chr8</text>
	<line stroke="green" stroke-width="1" x1="153" x2="181" y1="60" y2="60" />
	<line stroke="green" stroke-width="1" x1="153" x2="153" y1="60" y2="64" />
	<line stroke="green" stroke-width="1" x1="153" x2="153" y1="60" y2="56" />
	<line stroke="green" stroke-width="1" x1="161" x2="160.5" y1="60" y2="64" />
	<line stroke="green" stroke-width="1" x1="161" x2="160.5" y1="60" y2="56" />
	<line stroke="green" stroke-width="1" x1="169" x2="168" y1="60" y2="64" />
	<line stroke="green" stroke-width="1" x1="169" x2="168" y1="60" y2="56" />
	<line stroke="green" stroke-width="1" x1="177" x2="175.5" y1="60" y2="64" />
	<line stroke="green" stroke-width="1" x1="177" x2="175.5" y1="60" y2="56" />
	<line stroke="green" stroke-width="1" x1="181" x2="188" y1="60" y2="60" />
	<line stroke="green" stroke-width="1" x1="181" x2="181" y1="60" y2="64" />
	<line stroke="green" stroke-width="1" x1="181" x2="181" y1="60" y2="56" />
	<line stroke="green" stroke-width="1" x1="189" x2="214" y1="60" y2="60" />
	<line stroke="green" stroke-width="1" x1="189" x2="189" y1="60" y2="64" />
	<line stroke="green" stroke-width="1" x1="189" x2="189" y1="60" y2="56" />
	<line stroke="green" stroke-width="1" x1="197" x2="196.5" y1="60" y2="64" />
	<line stroke="green" stroke-width="1" x1="197" x2="196.5" y1="60" y2="56" />
	<line stroke="green" stroke-width="1" x1="205" x2="204" y1="60" y2="64" />
	<line stroke="green" stroke-width="1" x1="205" x2="204" y1="60" y2="56" />
	<line stroke="green" stroke-width="1" x1="213" x2="211.5" y1="60" y2="64" />
	<line stroke="green" stroke-width="1" x1="213" x2="211.5" y1="60" y2="56" />
	<line stroke="green" stroke-width="1" x1="215" x2="215" y1="60" y2="60" />
	<line stroke="green" stroke-width="1" x1="215" x2="215" y1="60" y2="64" />
	<line stroke="green" stroke-width="1" x1="215" x2="215" y1="60" y2="56" />
	<line stroke="green" stroke-width="1" x1="216" x2="223" y1="60" y2="60" />
	<line stroke="green" stroke-width="1" x1="216" x2="216" y1="60" y2="64" />
	<line stroke="green" stroke-width="1" x1="216" x2="216" y1="60" y2="56" />
	<line stroke="green" stroke-width="1" x1="223" x2="274" y1="60" y2="60" />
	<line stroke="green" stroke-width="1" x1="223" x2="223" y1="60" y2="64" />
	<line stroke="green" stroke-width="1" x1="223" x2="223" y1="60" y2="56" />
	<line stroke="green" stroke-width="1" x1="231" x2="230.5" y1="60" y2="64" />
	<line stroke="green" stroke-width="1" x1="231" x2="230.5" y1="60" y2="56" />
	<line stroke="green" stroke-width="1" x1="239" x2="238" y1="60" y2="64" />
	<line stroke="green" stroke-width="1" x1="239" x2="238" y1="60" y2="56" />
	<line stroke="green" stroke-width="1" x1="247" x2="245.5" y1="60" y2="64" />
	<line stroke="green" stroke-width="1" x1="247" x2="245.5" y1="60" y2="56" />
	<line stroke="green" stroke-width="1" x1="255" x2="253" y1="60" y2="64" />
	<line stroke="green" stroke-width="1" x1="255" x2="253" y1="60" y2="56" />
	<line stroke="green" stroke-width="1" x1="263" x2="260.5" y1="60" y2="64" />
	<line stroke="green" stroke-width="1" x1="263" x2="260.5" y1="60" y2="56" />
	<line stroke="green" stroke-width="1" x1="271" x2="268" y1="60" y2="64" />
	<line stroke="green" stroke-width="1" x1="271" x2="268" y1="60" y2="56" />
	<line stroke="green" stroke-width="1" x1="274" x2="274" y1="60" y2="60" />
	<line stroke="green" stroke-width="1" x1="274" x2="274" y1="60" y2="64" />
	<line stroke="green" stroke-width="1" x1="274" x2="274" y1="60" y2="56" />
	<line stroke="green" stroke-width="1" x1="275" x2="289" y1="60" y2="60" />
	<line stroke="green" stroke-width="1" x1="275" x2="275" y1="60" y2="64" />
	<line stroke="green" stroke-width="1" x1="275" x2="275" y1="60" y2="56" />
	<line stroke="green" stroke-width="1" x1="283" x2="282.5" y1="60" y2="64" />
	<line stroke="green" stroke-width="1" x1="283" x2="282.5" y1="60" y2="56" />
	<line stroke="green" stroke-width="1" x1="289" x2="294" y1="60" y2="60" />
	<line stroke="green" stroke-width="1" x1="289" x2="289" y1="60" y2="64" />
	<line stroke="green" stroke-width="1" x1="289" x2="289" y1="60" y2="56" />
	<line stroke="green" stroke-width="1" x1="294" x2="308" y1="60" y2="60" />
	<line stroke="green" stroke-width="1" x1="294" x2="294" y1="60" y2="64" />
	<line stroke="green" stroke-width="1" x1="294" x2="294" y1="60" y2="56" />
	<line stroke="green" stroke-width="1" x1="302" x2="301.5" y1="60" y2="64" />
	<line stroke="green" stroke-width="1" x1="302" x2="301.5" y1="60" y2="56" />
	<line stroke="green" stroke-width="1" x1="308" x2="321" y1="60" y2="60" />
	<line stroke="green" stroke-width="1" x1="308" x2="308" y1="60" y2="64" />
	<line stroke="green" stroke-width="1" x1="308" x2="308" y1="60" y2="56" />
	<line stroke="green" stroke-width="1" x1="316" x2="315.5" y1="60" y2="64" />
	<line stroke="green" stroke-width="1" x1="316" x2="315.5" y1="60" y2="56" />
	<line stroke="green" stroke-width="1" x1="322" x2="325" y1="60" y2="60" />
	<line stroke="green" stroke-width="1" x1="322" x2="322" y1="60" y2="64" />
	<line stroke="green" stroke-width="1" x1="322" x2="322" y1="60" y2="56" />
	<line stroke="green" stroke-width="1" x1="325" x2="354" y1="60" y2="60" />
	<line stroke="green" stroke-width="1" x1="325" x2="325" y1="60" y2="64" />
	<line stroke="green" stroke-width="1" x1="325" x2="325" y1="60" y2="56" />
	<line stroke="green" stroke-width="1" x1="333" x2="332.5" y1="60" y2="64" />
	<line stroke="green" stroke-width="1" x1="333" x2="332.5" y1="60" y2="56" />
	<line stroke="green" stroke-width="1" x1="341" x2="340" y1="60" y2="64" />
	<line stroke="green" stroke-width="1" x1="341" x2="340" y1="60" y2="56" />
	<line stroke="green" stroke-width="1" x1="349" x2="347.5" y1="60" y2="64" />
	<line stroke="green" stroke-width="1" x1="349" x2="347.5" y1="60" y2="56" />
	<line stroke="green" stroke-width="1" x1="354" x2="376" y1="60" y2="60" />
	<line stroke="green" stroke-width="1" x1="354" x2="354" y1="60" y2="64" />
	<line stroke="green" stroke-width="1" x1="354" x2="354" y1="60" y2="56" />
	<line stroke="green" stroke-width="1" x1="362" x2="361.5" y1="60" y2="64" />
	<line stroke="green" stroke-width="1" x1="362" x2="361.5" y1="60" y2="56" />
	<line stroke="green" stroke-width="1" x1="370" x2="369" y1="60" y2="64" />
	<line stroke="green" stroke-width="1" x1="370" x2="369" y1="60" y2="56" />
	<line stroke="green" stroke-width="1" x1="377" x2="387" y1="60" y2="60" />
	<line stroke="green" stroke-width="1" x1="377" x2="377" y1="60" y2="64" />
	<line stroke="green" stroke-width="1" x1="377" x2="377" y1="60" y2="56" />
	<line stroke="green" stroke-width="1" x1="385" x2="384.5" y1="60" y2="64" />
	<line stroke="green" stroke-width="1" x1="385" x2="384.5" y1="60" y2="56" />
	<line stroke="green" stroke-width="1" x1="388" x2="396" y1="60" y2="60" />
	<line stroke="green" stroke-width="1" x1="388" x2="388" y1="60" y2="64" />
	<line stroke="green" stroke-width="1" x1="388" x2="388" y1="60" y2="56" />
	<line stroke="green" stroke-width="1" x1="396" x2="395.5" y1="60" y2="64" />
	<line stroke="green" stroke-width="1" x1="396" x2="395.5" y1="60" y2="56" />
	<line stroke="green" stroke-width="1" x1="396" x2="407" y1="60" y2="60" />
	<line stroke="green" stroke-width="1" x1="396" x2="396" y1="60" y2="64" />
	<line stroke="green" stroke-width="1" x1="396" x2="396" y1="60" y2="56" />
	<line stroke="green" stroke-width="1" x1="404" x2="403.5" y1="60" y2="64" />
	<line stroke="green" stroke-width="1" x1="404" x2="403.5" y1="60" y2="56" />
	<line stroke="green" stroke-width="1" x1="408" x2="420" y1="60" y2="60" />
	<line stroke="green" stroke-width="1" x1="408" x2="408" y1="60" y2="64" />
	<line stroke="green" stroke-width="1" x1="408" x2="408" y1="60" y2="56" />
	<line stroke="green" stroke-width="1" x1="416" x2="415.5" y1="60" y2="64" />
	<line stroke="green" stroke-width="1" x1="416" x2="415.5" y1="60" y2="56" />
	<line stroke="green" stroke-width="1" x1="421" x2="430" y1="60" y2="60" />
	<line stroke="green" stroke-width="1" x1="421" x2="421" y1="60" y2="64" />
	<line stroke="green" stroke-width="1" x1="421" x2="421" y1="60" y2="56" />
	<line stroke="green" stroke-width="1" x1="429" x2="428.5" y1="60" y2="64" />
	<line stroke="green" stroke-width="1" x1="429" x2="428.5" y1="60" y2="56" />
	<line stroke="green" stroke-width="1" x1="431" x2="439" y1="60" y2="60" />
	<line stroke="green" stroke-width="1" x1="431" x2="431" y1="60" y2="64" />
	<line stroke="green" stroke-width="1" x1="431" x2="431" y1="60" y2="56" />
	<line stroke="green" stroke-width="1" x1="439" x2="438.5" y1="60" y2="64" />
	<line stroke="green" stroke-width="1" x1="439" x2="438.5" y1="60" y2="56" />
	<line stroke="green" stroke-width="1" x1="439" x2="457" y1="60" y2="60" />
	<line stroke="green" stroke-width="1" x1="439" x2="439" y1="60" y2="64" />
	<line stroke="green" stroke-width="1" x1="439" x2="439" y1="60" y2="56" />
	<line stroke="green" stroke-width="1" x1="447" x2="446.5" y1="60" y2="64" />
	<line stroke="green" stroke-width="1" x1="447" x2="446.5" y1="60" y2="56" />
	<line stroke="green" stroke-width="1" x1="455" x2="454" y1="60" y2="64" />
	<line stroke="green" stroke-width="1" x1="455" x2="454" y1="60" y2="56" />
	<line stroke="green" stroke-width="1" x1="457" x2="458" y1="60" y2="60" />
	<line stroke="green" stroke-width="1" x1="457" x2="457" y1="60" y2="64" />
	<line stroke="green" stroke-width="1" x1="457" x2="457" y1="60" y2="56" />
	<line stroke="green" stroke-width="1" x1="458" x2="469" y1="60" y2="60" />
	<line stroke="green" stroke-width="1" x1="458" x2="458" y1="60" y2="64" />
	<line stroke="green" stroke-width="1" x1="458" x2="458" y1="60" y2="56" />
	<line stroke="green" stroke-width="1" x1="466" x2="465.5" y1="60" y2="64" />
	<line stroke="green" stroke-width="1" x1="466" x2="465.5" y1="60" y2="56" />
	<line stroke="green" stroke-width="1" x1="470" x2="472" y1="60" y2="60" />
	<line stroke="green" stroke-width="1" x1="470" x2="470" y1="60" y2="64" />
	<line stroke="green" stroke-width="1" x1="470" x2="470" y1="60" y2="56" />
	<line stroke="green" stroke-width="1" x1="473" x2="505" y1="60" y2="60" />
	<line stroke="green" stroke-width="1" x1="473" x2="473" y1="60" y2="64" />
	<line stroke="green" stroke-width="1" x1="473" x2="473" y1="60" y2="56" />
	<line stroke="green" stroke-width="1" x1="481" x2="480.5" y1="60" y2="64" />
	<line stroke="green" stroke-width="1" x1="481" x2="480.5" y1="60" y2="56" />
	<line stroke="green" stroke-width="1" x1="489" x2="488" y1="60" y2="64" />
	<line stroke="green" stroke-width="1" x1="489" x2="488" y1="60" y2="56" />
	<line stroke="green" stroke-width="1" x1="497" x2="495.5" y1="60" y2="64" />
	<line stroke="green" stroke-width="1" x1="497" x2="495.5" y1="60" y2="56" />
	<line stroke="green" stroke-width="1" x1="505" x2="503" y1="60" y2="64" />
	<line stroke="green" stroke-width="1" x1="505" x2="503" y1="60" y2="56" />
	<line stroke="green" stroke-width="1" x1="506" x2="507" y1="60" y2="60" />
	<line stroke="green" stroke-width="1" x1="506" x2="506" y1="60" y2="64" />
	<line stroke="green" stroke-width="1" x1="506" x2="506" y1="60" y2="56" />
	<line stroke="green" stroke-width="1" x1="507" x2="515" y1="60" y2="60" />
	<line stroke="green" stroke-width="1" x1="507" x2="507" y1="60" y2="64" />
	<line stroke="green" stroke-width="1" x1="507" x2="507" y1="60" y2="56" />
	<line stroke="green" stroke-width="1" x1="515" x2="514.5" y1="60" y2="64" />
	<line stroke="green" stroke-width="1" x1="515" x2="514.5" y1="60" y2="56" />
	<line stroke="green" stroke-width="1" x1="515" x2="542" y1="60" y2="60" />
	<line stroke="green" stroke-width="1" x1="515" x2="515" y1="60" y2="64" />
	<line stroke="green" stroke-width="1" x1="515" x2="515" y1="60" y2="56" />
	<line stroke="green" stroke-width="1" x1="523" x2="522.5" y1="60" y2="64" />
	<line stroke="green" stroke-width="1" x1="523" x2="522.5" y1="60" y2="56" />
	<line stroke="green" stroke-width="1" x1="531" x2="530" y1="60" y2="64" />
	<line stroke="green" stroke-width="1" x1="531" x2="530" y1="60" y2="56" />
	<line stroke="green" stroke-width="1" x1="539" x2="537.5" y1="60" y2="64" />
	<line stroke="green" stroke-width="1" x1="539" x2="537.5" y1="60" y2="56" />
	<line stroke="green" stroke-width="1" x1="543" x2="544" y1="60" y2="60" />
	<line stroke="green" stroke-width="1" x1="543" x2="543" y1="60" y2="64" />
	<line stroke="green" stroke-width="1" x1="543" x2="543" y1="60" y2="56" />
	<line stroke="green" stroke-width="1" x1="544" x2="547" y1="60" y2="60" />
	<line stroke="green" stroke-width="1" x1="544" x2="544" y1="60" y2="64" />
	<line stroke="green" stroke-width="1" x1="544" x2="544" y1="60" y2="56" />
	<line stroke="green" stroke-width="1" x1="547" x2="572" y1="60" y2="60" />
	<line stroke="green" stroke-width="1" x1="547" x2="547" y1="60" y2="64" />
	<line stroke="green" stroke-width="1" x1="547" x2="547" y1="60" y2="56" />
	<line stroke="green" stroke-width="1" x1="555" x2="554.5" y1="60" y2="64" />
	<line stroke="green" stroke-width="1" x1="555" x2="554.5" y1="60" y2="56" />
	<line stroke="green" stroke-width="1" x1="563" x2="562" y1="60" y2="64" />
	<line stroke="green" stroke-width="1" x1="563" x2="562" y1="60" y2="56" />
	<line stroke="green" stroke-width="1" x1="571" x2="569.5" y1="60" y2="64" />
	<line stroke="green" stroke-width="1" x1="571" x2="569.5" y1="60" y2="56" />
	<line stroke="green" stroke-width="1" x1="573" x2="630" y1="60" y2="60" />
	<line stroke="green" stroke-width="1" x1="573" x2="573" y1="60" y2="64" />
	<line stroke="green" stroke-width="1" x1="573" x2="573" y1="60" y2="56" />
	<line stroke="green" stroke-width="1" x1="581" x2="580.5" y1="60" y2="64" />
	<line stroke="green" stroke-width="1" x1="581" x2="580.5" y1="60" y2="56" />
	<line stroke="green" stroke-width="1" x1="589" x2="588" y1="60" y2="64" />
	<line stroke="green" stroke-width="1" x1="589" x2="588" y1="60" y2="56" />
	<line stroke="green" stroke-width="1" x1="597" x2="595.5" y1="60" y2="64" />
	<line stroke="green" stroke-width="1" x1="597" x2="595.5" y1="60" y2="56" />
	<line stroke="green" stroke-width="1" x1="605" x2="603" y1="60" y2="64" />
	<line stroke="green" stroke-width="1" x1="605" x2="603" y1="60" y2="56" />
	<line stroke="green" stroke-width="1" x1="613" x2="610.5" y1="60" y2="64" />
	<line stroke="green" stroke-width="1" x1="613" x2="610.5" y1="60" y2="56" />
	<line stroke="green" stroke-width="1" x1="621" x2="618" y1="60" y2="64" />
	<line stroke="green" stroke-width="1" x1="621" x2="618" y1="60" y2="56" />
	<line stroke="green" stroke-width="1" x1="629" x2="625.5" y1="60" y2="64" />
	<line stroke="green" stroke-width="1" x1="629" x2="625.5" y1="60" y2="56" />
	<line stroke="green" stroke-width="1" x1="631" x2="632" y1="60" y2="60" />
	<line stroke="green" stroke-width="1" x1="631" x2="631" y1="60" y2="64" />
	<line stroke="green" stroke-width="1" x1="631" x2="631" y1="60" y2="56" />
	<line stroke="green" stroke-width="1" x1="632" x2="638" y1="60" y2="60" />
	<line stroke="green" stroke-width="1" x1="632" x2="632" y1="60" y2="64" />
	<line stroke="green" stroke-width="1" x1="632" x2="632" y1="60" y2="56" />
	<line stroke="green" stroke-width="1" x1="638" x2="643" y1="60" y2="60" />
	<line stroke="green" stroke-width="1" x1="638" x2="638" y1="60" y2="64" />
	<line stroke="green" stroke-width="1" x1="638" x2="638" y1="60" y2="56" />
	<line stroke="green" stroke-width="1" x1="643" x2="649" y1="60" y2="60" />
	<line stroke="green" stroke-width="1" x1="643" x2="643" y1="60" y2="64" />
	<line stroke="green" stroke-width="1" x1="643" x2="643" y1="60" y2="56" />
	<rect fill="green" height="20" stroke="green" stroke-width="1" width="1" x="152" y="50" />
	<rect fill="green" height="20" stroke="green" stroke-width="1" width="1" x="181" y="50" />
	<rect fill="green" height="20" stroke="green" stroke-width="1" width="1" x="188" y="50" />
	<rect fill="green" height="20" stroke="green" stroke-width="1" width="1" x="214" y="50" />
	<rect fill="green" height="20" stroke="green" stroke-width="1" width="1" x="215" y="50" />
	<rect fill="green" height="20" stroke="green" stroke-width="1" width="1" x="223" y="50" />
	<rect fill="green" height="20" stroke="green" stroke-width="1" width="1" x="274" y="50" />
	<rect fill="green" height="20" stroke="green" stroke-width="1" width="1" x="274" y="50" />
	<rect fill="green" height="20" stroke="green" stroke-width="1" width="1" x="289" y="50" />
	<rect fill="green" height="20" stroke="green" stroke-width="1" width="1" x="294" y="50" />
	<rect fill="green" height="20" stroke="green" stroke-width="1" width="1" x="308" y="50" />
	<rect fill="green" height="20" stroke="green" stroke-width="1" width="1" x="321" y="50" />
	<rect fill="green" height="20" stroke="green" stroke-width="1" width="1" x="325" y="50" />
	<rect fill="green" height="20" stroke="green" stroke-width="1" width="1" x="354" y="50" />
	<rect fill="green" height="20" stroke="green" stroke-width="1" width="1" x="376" y="50" />
	<rect fill="green" height="20" stroke="green" stroke-width="1" width="1" x="387" y="50" />
	<rect fill="green" height="20" stroke="green" stroke-width="1" width="1" x="396" y="50" />
	<rect fill="green" height="20" stroke="green" stroke-width="1" width="1" x="407" y="50" />
	<rect fill="green" height="20" stroke="green" stroke-width="1" width="1" x="420" y="50" />
	<rect fill="green" height="20" stroke="green" stroke-width="1" width="1" x="430" y="50" />
	<rect fill="green" height="20" stroke="green" stroke-width="1" width="1" x="439" y="50" />
	<rect fill="green" height="20" stroke="green" stroke-width="1" width="1" x="457" y="50" />
	<rect fill="green" height="20" stroke="green" stroke-width="1" width="1" x="458" y="50" />
	<rect fill="green" height="20" stroke="green" stroke-width="1" width="1" x="469" y="50" />
	<rect fill="green" height="20" stroke="green" stroke-width="1" width="1" x="472" y="50" />
	<rect fill="green" height="20" stroke="green" stroke-width="1" width="1" x="505" y="50" />
	<rect fill="green" height="20" stroke="green" stroke-width="1" width="1" x="507" y="50" />
	<rect fill="green" height="20" stroke="green" stroke-width="1" width="1" x="515" y="50" />
	<rect fill="green" height="20" stroke="green" stroke-width="1" width="1" x="542" y="50" />
	<rect fill="green" height="20" stroke="green" stroke-width="1" width="1" x="544" y="50" />
	<rect fill="green" height="20" stroke="green" stroke-width="1" width="1" x="547" y="50" />
	<rect fill="green" height="20" stroke="green" stroke-width="1" width="1" x="572" y="50" />
	<rect fill="green" height="20" stroke="green" stroke-width="1" width="1" x="630" y="50" />
	<rect fill="green" height="20" stroke="green" stroke-width="1" width="1" x="632" y="50" />
	<rect fill="green" height="20" stroke="green" stroke-width="1" width="1" x="638" y="50" />
	<rect fill="green" height="20" stroke="green" stroke-width="1" width="1" x="643" y="50" />
	<rect fill="green" height="20" stroke="green" stroke-width="1" width="3" x="649" y="50" />
	<rect fill="white" fill-opacity="1" height="20" stroke="green" stroke-width="1" width="28" x="152" y="50" />
	<rect fill="white" fill-opacity="1" height="20" stroke="green" stroke-width="1" width="2" x="651" y="50" />
	<line stroke="black" stroke-width="1" x1="50" x2="1000" y1="38" y2="38" />
	<line stroke="black" stroke-width="1" x1="50" x2="50" y1="38" y2="30" />
	<text font-family="Arial" font-size="1" x="30" y="20">1960</text>
	<line stroke="black" stroke-width="1" x1="100" x2="100" y1="38" y2="30" />
	<text font-family="Arial" font-size="1" x="80" y="20">1970</text>
	<line stroke="black" stroke-width="1" x1="150" x2="150" y1="38" y2="30" />
	<text font-family="Arial" font-size="1" x="130" y="20">1980</text>
	<line stroke="black" stroke-width="1" x1="200" x2="200" y1="38" y2="30" />
	<text font-family="Arial" font-size="1" x="180" y="20">1990</text>
	<line stroke="black" stroke-width="1" x1="250" x2="250" y1="38" y2="30" />
	<text font-family="Arial" font-size="1" x="230" y="20">2000</text>
	<line stroke="black" stroke-width="1" x1="300" x2="300" y1="38" y2="30" />
	<text font-family="Arial" font-size="1" x="280" y="20">2010</text>
	<line stroke="black" stroke-width="1" x1="350" x2="350" y1="38" y2="30" />
	<text font-family="Arial" font-size="1" x="330" y="20">2020</text>
	<line stroke="black" stroke-width="1" x1="400" x2="400" y1="38" y2="30" />
	<text font-family="Arial" font-size="1" x="380" y="20">2030</text>
	<line stroke="black" stroke-width="1" x1="450" x2="450" y1="38" y2="30" />
	<text font-family="Arial" font-size="1" x="430" y="20">2040</text>
	<line stroke="black" stroke-width="1" x1="500" x2="500" y1="38" y2="30" />
	<text font-family="Arial" font-size="1" x="480" y="20">2050</text>
	<line stroke="black" stroke-width="1" x1="550" x2="550" y1="38" y2="30" />
	<text font-family="Arial" font-size="1" x="530" y="20">2060</text>
	<line stroke="black" stroke-width="1" x1="600" x2="600" y1="38" y2="30" />
	<text font-family="Arial" font-size="1" x="580" y="20">2070</text>
	<line stroke="black" stroke-width="1" x1="650" x2="650" y1="38" y2="30" />
	<text font-family="Arial" font-size="1" x="630" y="20">2080</text>
	<line stroke="black" stroke-width="1" x1="700" x2="700" y1="38" y2="30" />
	<text font-family="Arial" font-size="1" x="680" y="20">2090</text>
	<line stroke="black" stroke-width="1" x1="750" x2="750" y1="38" y2="30" />
	<text font-family="Arial" font-size="1" x="730" y="20">2100</text>
	<line stroke="black" stroke-width="1" x1="800" x2="800" y1="38" y2="30" />
	<text font-family="Arial" font-size="1" x="780" y="20">2110</text>
	<line stroke="black" stroke-width="1" x1="850" x2="850" y1="38" y2="30" />
	<text font-family="Arial" font-size="1" x="830" y="20">2120</text>
	<line stroke="black" stroke-width="1" x1="900" x2="900" y1="38" y2="30" />
	<text font-family="Arial" font-size="1" x="880" y="20">2130</text>
	<line stroke="black" stroke-width="1" x1="950" x2="950" y1="38" y2="30" />
	<text font-family="Arial" font-size="1" x="930" y="20">2140</text>
	<line stroke="black" stroke-width="1" x1="1000" x2="1000" y1="38" y2="30" />
	<text font-family="Arial" font-size="1" x="980" y="20">2150 (Kb)</text>
	<!-- 
	Generated using the Perl SVG Module V2.63
	by Ronan Oger
	Info: http://www.roitsystems.com/
 -->
</svg>